<svg id="my-svg" width="100%" xmlns="http://www.w3.org/2000/svg" xmlns:xlink="http://www.w3.org/1999/xlink" style="max-width: 4538px; background-color: white;" viewBox="126 -43 4538 852.800048828125" role="graphics-document document" aria-roledescription="timeline"><style>#my-svg{font-family:Segoe UI,Arial,sans-serif;font-size:18px;fill:#0f172a;}@keyframes edge-animation-frame{from{stroke-dashoffset:0;}}@keyframes dash{to{stroke-dashoffset:0;}}#my-svg .edge-animation-slow{stroke-dasharray:9,5!important;stroke-dashoffset:900;animation:dash 50s linear infinite;stroke-linecap:round;}#my-svg .edge-animation-fast{stroke-dasharray:9,5!important;stroke-dashoffset:900;animation:dash 20s linear infinite;stroke-linecap:round;}#my-svg .error-icon{fill:#fef3c7;}#my-svg .error-text{fill:#010c38;stroke:#010c38;}#my-svg .edge-thickness-normal{stroke-width:1px;}#my-svg .edge-thickness-thick{stroke-width:3.5px;}#my-svg .edge-pattern-solid{stroke-dasharray:0;}#my-svg .edge-thickness-invisible{stroke-width:0;fill:none;}#my-svg .edge-pattern-dashed{stroke-dasharray:3;}#my-svg .edge-pattern-dotted{stroke-dasharray:2;}#my-svg .marker{fill:#475569;stroke:#475569;}#my-svg .marker.cross{stroke:#475569;}#my-svg svg{font-family:Segoe UI,Arial,sans-serif;font-size:18px;}#my-svg p{margin:0;}#my-svg .edge{stroke-width:3;}#my-svg .section--1 rect,#my-svg .section--1 path,#my-svg .section--1 circle,#my-svg .section--1 path{fill:hsl(204, 76.9230769231%, 69.9019607843%);}#my-svg .section--1 text{fill:#0f172a;}#my-svg .node-icon--1{font-size:40px;color:#0f172a;}#my-svg .section-edge--1{stroke:hsl(204, 76.9230769231%, 69.9019607843%);}#my-svg .edge-depth--1{stroke-width:17;}#my-svg .section--1 line{stroke:rgb(135.7884615385, 64.9423076923, 17.7115384615);stroke-width:3;}#my-svg .lineWrapper line{stroke:#0f172a;}#my-svg .disabled,#my-svg .disabled circle,#my-svg .disabled text{fill:#fef3c7;}#my-svg .disabled text{fill:#d97706;}#my-svg .section-0 rect,#my-svg .section-0 path,#my-svg .section-0 circle,#my-svg .section-0 path{fill:hsl(138.4615384615, 76.4705882353%, 71.6666666667%);}#my-svg .section-0 text{fill:#0f172a;}#my-svg .node-icon-0{font-size:40px;color:#0f172a;}#my-svg .section-edge-0{stroke:hsl(138.4615384615, 76.4705882353%, 71.6666666667%);}#my-svg .edge-depth-0{stroke-width:14;}#my-svg .section-0 line{stroke:rgb(127.4999999999, 17, 93.5);stroke-width:3;}#my-svg .lineWrapper line{stroke:#0f172a;}#my-svg .disabled,#my-svg .disabled circle,#my-svg .disabled text{fill:#fef3c7;}#my-svg .disabled text{fill:#d97706;}#my-svg .section-1 rect,#my-svg .section-1 path,#my-svg .section-1 circle,#my-svg .section-1 path{fill:hsl(48, 96.4912280702%, 63.8235294118%);}#my-svg .section-1 text{fill:#0f172a;}#my-svg .node-icon-1{font-size:40px;color:#0f172a;}#my-svg .section-edge-1{stroke:hsl(48, 96.4912280702%, 63.8235294118%);}#my-svg .edge-depth-1{stroke-width:11;}#my-svg .section-1 line{stroke:rgb(3.2368421052, 38.8421052631, 181.2631578946);stroke-width:3;}#my-svg .lineWrapper line{stroke:#0f172a;}#my-svg .disabled,#my-svg .disabled circle,#my-svg .disabled text{fill:#fef3c7;}#my-svg .disabled text{fill:#d97706;}#my-svg .section-2 rect,#my-svg .section-2 path,#my-svg .section-2 circle,#my-svg .section-2 path{fill:hsl(234, 76.9230769231%, 69.9019607843%);}#my-svg .section-2 text{fill:#0f172a;}#my-svg .node-icon-2{font-size:40px;color:#0f172a;}#my-svg .section-edge-2{stroke:hsl(234, 76.9230769231%, 69.9019607843%);}#my-svg .edge-depth-2{stroke-width:8;}#my-svg .section-2 line{stroke:rgb(135.7884615385, 123.9807692308, 17.7115384615);stroke-width:3;}#my-svg .lineWrapper line{stroke:#0f172a;}#my-svg .disabled,#my-svg .disabled circle,#my-svg .disabled text{fill:#fef3c7;}#my-svg .disabled text{fill:#d97706;}#my-svg .section-3 rect,#my-svg .section-3 path,#my-svg .section-3 circle,#my-svg .section-3 path{fill:hsl(264, 76.9230769231%, 69.9019607843%);}#my-svg .section-3 text{fill:#0f172a;}#my-svg .node-icon-3{font-size:40px;color:#0f172a;}#my-svg .section-edge-3{stroke:hsl(264, 76.9230769231%, 69.9019607843%);}#my-svg .edge-depth-3{stroke-width:5;}#my-svg .section-3 line{stroke:rgb(88.5576923077, 135.7884615385, 17.7115384615);stroke-width:3;}#my-svg .lineWrapper line{stroke:#0f172a;}#my-svg .disabled,#my-svg .disabled circle,#my-svg .disabled text{fill:#fef3c7;}#my-svg .disabled text{fill:#d97706;}#my-svg .section-4 rect,#my-svg .section-4 path,#my-svg .section-4 circle,#my-svg .section-4 path{fill:hsl(294, 76.9230769231%, 69.9019607843%);}#my-svg .section-4 text{fill:#0f172a;}#my-svg .node-icon-4{font-size:40px;color:#0f172a;}#my-svg .section-edge-4{stroke:hsl(294, 76.9230769231%, 69.9019607843%);}#my-svg .edge-depth-4{stroke-width:2;}#my-svg .section-4 line{stroke:rgb(29.5192307692, 135.7884615385, 17.7115384615);stroke-width:3;}#my-svg .lineWrapper line{stroke:#0f172a;}#my-svg .disabled,#my-svg .disabled circle,#my-svg .disabled text{fill:#fef3c7;}#my-svg .disabled text{fill:#d97706;}#my-svg .section-5 rect,#my-svg .section-5 path,#my-svg .section-5 circle,#my-svg .section-5 path{fill:hsl(324, 76.9230769231%, 69.9019607843%);}#my-svg .section-5 text{fill:#0f172a;}#my-svg .node-icon-5{font-size:40px;color:#0f172a;}#my-svg .section-edge-5{stroke:hsl(324, 76.9230769231%, 69.9019607843%);}#my-svg .edge-depth-5{stroke-width:-1;}#my-svg .section-5 line{stroke:rgb(17.7115384615, 135.7884615385, 64.9423076923);stroke-width:3;}#my-svg .lineWrapper line{stroke:#0f172a;}#my-svg .disabled,#my-svg .disabled circle,#my-svg .disabled text{fill:#fef3c7;}#my-svg .disabled text{fill:#d97706;}#my-svg .section-6 rect,#my-svg .section-6 path,#my-svg .section-6 circle,#my-svg .section-6 path{fill:hsl(354, 76.9230769231%, 69.9019607843%);}#my-svg .section-6 text{fill:#0f172a;}#my-svg .node-icon-6{font-size:40px;color:#0f172a;}#my-svg .section-edge-6{stroke:hsl(354, 76.9230769231%, 69.9019607843%);}#my-svg .edge-depth-6{stroke-width:-4;}#my-svg .section-6 line{stroke:rgb(17.7115384615, 135.7884615385, 123.9807692308);stroke-width:3;}#my-svg .lineWrapper line{stroke:#0f172a;}#my-svg .disabled,#my-svg .disabled circle,#my-svg .disabled text{fill:#fef3c7;}#my-svg .disabled text{fill:#d97706;}#my-svg .section-7 rect,#my-svg .section-7 path,#my-svg .section-7 circle,#my-svg .section-7 path{fill:hsl(54, 76.9230769231%, 75%);}#my-svg .section-7 text{fill:#0f172a;}#my-svg .node-icon-7{font-size:40px;color:#0f172a;}#my-svg .section-edge-7{stroke:hsl(54, 76.9230769231%, 75%);}#my-svg .edge-depth-7{stroke-width:-7;}#my-svg .section-7 line{stroke:rgb(14.7115384615, 24.5192307692, 112.7884615385);stroke-width:3;}#my-svg .lineWrapper line{stroke:#0f172a;}#my-svg .disabled,#my-svg .disabled circle,#my-svg .disabled text{fill:#fef3c7;}#my-svg .disabled text{fill:#d97706;}#my-svg .section-8 rect,#my-svg .section-8 path,#my-svg .section-8 circle,#my-svg .section-8 path{fill:hsl(114, 76.9230769231%, 69.9019607843%);}#my-svg .section-8 text{fill:#0f172a;}#my-svg .node-icon-8{font-size:40px;color:#0f172a;}#my-svg .section-edge-8{stroke:hsl(114, 76.9230769231%, 69.9019607843%);}#my-svg .edge-depth-8{stroke-width:-10;}#my-svg .section-8 line{stroke:rgb(123.9807692308, 17.7115384615, 135.7884615385);stroke-width:3;}#my-svg .lineWrapper line{stroke:#0f172a;}#my-svg .disabled,#my-svg .disabled circle,#my-svg .disabled text{fill:#fef3c7;}#my-svg .disabled text{fill:#d97706;}#my-svg .section-9 rect,#my-svg .section-9 path,#my-svg .section-9 circle,#my-svg .section-9 path{fill:hsl(144, 76.9230769231%, 69.9019607843%);}#my-svg .section-9 text{fill:#0f172a;}#my-svg .node-icon-9{font-size:40px;color:#0f172a;}#my-svg .section-edge-9{stroke:hsl(144, 76.9230769231%, 69.9019607843%);}#my-svg .edge-depth-9{stroke-width:-13;}#my-svg .section-9 line{stroke:rgb(135.7884615385, 17.7115384615, 88.5576923077);stroke-width:3;}#my-svg .lineWrapper line{stroke:#0f172a;}#my-svg .disabled,#my-svg .disabled circle,#my-svg .disabled text{fill:#fef3c7;}#my-svg .disabled text{fill:#d97706;}#my-svg .section-10 rect,#my-svg .section-10 path,#my-svg .section-10 circle,#my-svg .section-10 path{fill:hsl(174, 76.9230769231%, 69.9019607843%);}#my-svg .section-10 text{fill:#0f172a;}#my-svg .node-icon-10{font-size:40px;color:#0f172a;}#my-svg .section-edge-10{stroke:hsl(174, 76.9230769231%, 69.9019607843%);}#my-svg .edge-depth-10{stroke-width:-16;}#my-svg .section-10 line{stroke:rgb(135.7884615385, 17.7115384615, 29.5192307692);stroke-width:3;}#my-svg .lineWrapper line{stroke:#0f172a;}#my-svg .disabled,#my-svg .disabled circle,#my-svg .disabled text{fill:#fef3c7;}#my-svg .disabled text{fill:#d97706;}#my-svg .section--1[data-look="neo"] rect,#my-svg .section--1[data-look="neo"] path,#my-svg .section--1[data-look="neo"] circle{fill:#e8f4fc;stroke:url(#my-svg-gradient);stroke-width:2;}#my-svg .section--1[data-look="neo"] line{stroke:url(#my-svg-gradient);stroke-width:2;}#my-svg .section-0[data-look="neo"] rect,#my-svg .section-0[data-look="neo"] path,#my-svg .section-0[data-look="neo"] circle{fill:#e8f4fc;stroke:url(#my-svg-gradient);stroke-width:2;}#my-svg .section-0[data-look="neo"] line{stroke:url(#my-svg-gradient);stroke-width:2;}#my-svg .section-1[data-look="neo"] rect,#my-svg .section-1[data-look="neo"] path,#my-svg .section-1[data-look="neo"] circle{fill:#e8f4fc;stroke:url(#my-svg-gradient);stroke-width:2;}#my-svg .section-1[data-look="neo"] line{stroke:url(#my-svg-gradient);stroke-width:2;}#my-svg .section-2[data-look="neo"] rect,#my-svg .section-2[data-look="neo"] path,#my-svg .section-2[data-look="neo"] circle{fill:#e8f4fc;stroke:url(#my-svg-gradient);stroke-width:2;}#my-svg .section-2[data-look="neo"] line{stroke:url(#my-svg-gradient);stroke-width:2;}#my-svg .section-3[data-look="neo"] rect,#my-svg .section-3[data-look="neo"] path,#my-svg .section-3[data-look="neo"] circle{fill:#e8f4fc;stroke:url(#my-svg-gradient);stroke-width:2;}#my-svg .section-3[data-look="neo"] line{stroke:url(#my-svg-gradient);stroke-width:2;}#my-svg .section-4[data-look="neo"] rect,#my-svg .section-4[data-look="neo"] path,#my-svg .section-4[data-look="neo"] circle{fill:#e8f4fc;stroke:url(#my-svg-gradient);stroke-width:2;}#my-svg .section-4[data-look="neo"] line{stroke:url(#my-svg-gradient);stroke-width:2;}#my-svg .section-5[data-look="neo"] rect,#my-svg .section-5[data-look="neo"] path,#my-svg .section-5[data-look="neo"] circle{fill:#e8f4fc;stroke:url(#my-svg-gradient);stroke-width:2;}#my-svg .section-5[data-look="neo"] line{stroke:url(#my-svg-gradient);stroke-width:2;}#my-svg .section-6[data-look="neo"] rect,#my-svg .section-6[data-look="neo"] path,#my-svg .section-6[data-look="neo"] circle{fill:#e8f4fc;stroke:url(#my-svg-gradient);stroke-width:2;}#my-svg .section-6[data-look="neo"] line{stroke:url(#my-svg-gradient);stroke-width:2;}#my-svg .section-7[data-look="neo"] rect,#my-svg .section-7[data-look="neo"] path,#my-svg .section-7[data-look="neo"] circle{fill:#e8f4fc;stroke:url(#my-svg-gradient);stroke-width:2;}#my-svg .section-7[data-look="neo"] line{stroke:url(#my-svg-gradient);stroke-width:2;}#my-svg .section-8[data-look="neo"] rect,#my-svg .section-8[data-look="neo"] path,#my-svg .section-8[data-look="neo"] circle{fill:#e8f4fc;stroke:url(#my-svg-gradient);stroke-width:2;}#my-svg .section-8[data-look="neo"] line{stroke:url(#my-svg-gradient);stroke-width:2;}#my-svg .section-9[data-look="neo"] rect,#my-svg .section-9[data-look="neo"] path,#my-svg .section-9[data-look="neo"] circle{fill:#e8f4fc;stroke:url(#my-svg-gradient);stroke-width:2;}#my-svg .section-9[data-look="neo"] line{stroke:url(#my-svg-gradient);stroke-width:2;}#my-svg .section-10[data-look="neo"] rect,#my-svg .section-10[data-look="neo"] path,#my-svg .section-10[data-look="neo"] circle{fill:#e8f4fc;stroke:url(#my-svg-gradient);stroke-width:2;}#my-svg .section-10[data-look="neo"] line{stroke:url(#my-svg-gradient);stroke-width:2;}#my-svg .section-root rect,#my-svg .section-root path,#my-svg .section-root circle{fill:hsl(204, 76.9230769231%, 69.9019607843%);}#my-svg .section-root text{fill:#0f172a;}#my-svg .icon-container{height:100%;display:flex;justify-content:center;align-items:center;}#my-svg .edge{fill:none;}#my-svg .eventWrapper{filter:brightness(120%);}#my-svg .node .neo-node{stroke:#2563eb;}#my-svg [data-look="neo"].node rect,#my-svg [data-look="neo"].cluster rect,#my-svg [data-look="neo"].node polygon{stroke:url(#my-svg-gradient);filter:drop-shadow( 1px 2px 2px rgba(185,185,185,1));}#my-svg [data-look="neo"].swimlane.cluster rect{filter:none;}#my-svg [data-look="neo"].node path{stroke:url(#my-svg-gradient);stroke-width:1px;}#my-svg [data-look="neo"].node .outer-path{filter:drop-shadow( 1px 2px 2px rgba(185,185,185,1));}#my-svg [data-look="neo"].node .neo-line path{stroke:#2563eb;filter:none;}#my-svg [data-look="neo"].node circle{stroke:url(#my-svg-gradient);filter:drop-shadow( 1px 2px 2px rgba(185,185,185,1));}#my-svg [data-look="neo"].node circle .state-start{fill:#000000;}#my-svg [data-look="neo"].icon-shape .icon{fill:url(#my-svg-gradient);filter:drop-shadow( 1px 2px 2px rgba(185,185,185,1));}#my-svg [data-look="neo"].icon-shape .icon-neo path{stroke:url(#my-svg-gradient);filter:drop-shadow( 1px 2px 2px rgba(185,185,185,1));}#my-svg :root{--mermaid-font-family:"trebuchet ms",verdana,arial,sans-serif;}</style><g/><g/><defs><marker id="my-svg-arrowhead" refX="5" refY="2" markerWidth="6" markerHeight="4" orient="auto"><path d="M 0,0 V 4 L6,2 Z"/></marker></defs><g transform="translate(200, 50)"><g class="timeline-node section--1"><g><path id="my-svg-node-0" class="node-bkg node-undefined" d="M0 87.60000305175781 v-82.60000305175781 q0,-5,5,-5 h180 q5,0,5,5 v87.60000305175781 H0 Z"/><line class="node-line--1" x1="0" y1="92.60000305175781" x2="190" y2="92.60000305175781"/></g><g transform="translate(95, 10)"><text dy="1em" alignment-baseline="middle" dominant-baseline="middle" text-anchor="middle"><tspan x="0" dy="1em">Fundación</tspan></text></g></g></g><g class="taskWrapper" transform="translate(200, 192.60000305175782)"><g class="timeline-node section--1"><g><path id="my-svg-node-1" class="node-bkg node-undefined" d="M0 67.8 v-62.8 q0,-5,5,-5 h180 q5,0,5,5 v67.8 H0 Z"/><line class="node-line--1" x1="0" y1="72.8" x2="190" y2="72.8"/></g><g transform="translate(95, 10)"><text dy="1em" alignment-baseline="middle" dominant-baseline="middle" text-anchor="middle"><tspan x="0" dy="1em">db3a34a</tspan></text></g></g></g><g class="lineWrapper"><line x1="295" y1="265.40000305175784" x2="295" y2="785.800015258789" stroke-width="2" stroke="black" marker-end="url(#my-svg-arrowhead)" stroke-dasharray="5,5"/></g><g class="eventWrapper" transform="translate(200, 392.6000030517578)"><g class="timeline-node section--1"><g><path id="my-svg-node-2" class="node-bkg node-undefined" d="M0 67.60000305175781 v-62.60000305175781 q0,-5,5,-5 h180 q5,0,5,5 v67.60000305175781 H0 Z"/><line class="node-line--1" x1="0" y1="72.60000305175781" x2="190" y2="72.60000305175781"/></g><g transform="translate(95, 10)"><text dy="1em" alignment-baseline="middle" dominant-baseline="middle" text-anchor="middle"><tspan x="0" dy="1em">NestJS   +   Docker   +</tspan><tspan x="0" dy="1.1em">Prisma/Postgres</tspan></text></g></g></g><g class="eventWrapper" transform="translate(200, 475.20000610351565)"><g class="timeline-node section--1"><g><path id="my-svg-node-3" class="node-bkg node-undefined" d="M0 87.40000610351562 v-82.40000610351562 q0,-5,5,-5 h180 q5,0,5,5 v87.40000610351562 H0 Z"/><line class="node-line--1" x1="0" y1="92.40000610351562" x2="190" y2="92.40000610351562"/></g><g transform="translate(95, 10)"><text dy="1em" alignment-baseline="middle" dominant-baseline="middle" text-anchor="middle"><tspan x="0" dy="1em">Webhook   Zavu</tspan><tspan x="0" dy="1.1em">(HMAC)   +</tspan><tspan x="0" dy="1.1em">BullMQ/Redis</tspan></text></g></g></g><g class="eventWrapper" transform="translate(200, 577.6000122070312)"><g class="timeline-node section--1"><g><path id="my-svg-node-4" class="node-bkg node-undefined" d="M0 67.60000305175781 v-62.60000305175781 q0,-5,5,-5 h180 q5,0,5,5 v67.60000305175781 H0 Z"/><line class="node-line--1" x1="0" y1="72.60000305175781" x2="190" y2="72.60000305175781"/></g><g transform="translate(95, 10)"><text dy="1em" alignment-baseline="middle" dominant-baseline="middle" text-anchor="middle"><tspan x="0" dy="1em">SessionService   +</tspan><tspan x="0" dy="1.1em">ConversationProcessor</tspan></text></g></g></g><g class="eventWrapper" transform="translate(200, 660.200015258789)"><g class="timeline-node section--1"><g><path id="my-svg-node-5" class="node-bkg node-undefined" d="M0 47.8 v-42.8 q0,-5,5,-5 h180 q5,0,5,5 v47.8 H0 Z"/><line class="node-line--1" x1="0" y1="52.8" x2="190" y2="52.8"/></g><g transform="translate(95, 10)"><text dy="1em" alignment-baseline="middle" dominant-baseline="middle" text-anchor="middle"><tspan x="0" dy="1em">Health   check</tspan></text></g></g></g><g transform="translate(400, 50)"><g class="timeline-node section-0"><g><path id="my-svg-node-6" class="node-bkg node-undefined" d="M0 87.60000305175781 v-82.60000305175781 q0,-5,5,-5 h980 q5,0,5,5 v87.60000305175781 H0 Z"/><line class="node-line-0" x1="0" y1="92.60000305175781" x2="990" y2="92.60000305175781"/></g><g transform="translate(495, 10)"><text dy="1em" alignment-baseline="middle" dominant-baseline="middle" text-anchor="middle"><tspan x="0" dy="1em">Admin</tspan></text></g></g></g><g class="taskWrapper" transform="translate(400, 192.60000305175782)"><g class="timeline-node section-0"><g><path id="my-svg-node-7" class="node-bkg node-undefined" d="M0 67.8 v-62.8 q0,-5,5,-5 h180 q5,0,5,5 v67.8 H0 Z"/><line class="node-line-0" x1="0" y1="72.8" x2="190" y2="72.8"/></g><g transform="translate(95, 10)"><text dy="1em" alignment-baseline="middle" dominant-baseline="middle" text-anchor="middle"><tspan x="0" dy="1em">2beeeee</tspan></text></g></g></g><g class="lineWrapper"><line x1="495" y1="265.40000305175784" x2="495" y2="785.800015258789" stroke-width="2" stroke="black" marker-end="url(#my-svg-arrowhead)" stroke-dasharray="5,5"/></g><g class="eventWrapper" transform="translate(400, 392.6000030517578)"><g class="timeline-node section-0"><g><path id="my-svg-node-8" class="node-bkg node-undefined" d="M0 67.60000305175781 v-62.60000305175781 q0,-5,5,-5 h180 q5,0,5,5 v67.60000305175781 H0 Z"/><line class="node-line-0" x1="0" y1="72.60000305175781" x2="190" y2="72.60000305175781"/></g><g transform="translate(95, 10)"><text dy="1em" alignment-baseline="middle" dominant-baseline="middle" text-anchor="middle"><tspan x="0" dy="1em">Panel   admin   SPA   +</tspan><tspan x="0" dy="1.1em">JWT   auth</tspan></text></g></g></g><g class="taskWrapper" transform="translate(600, 192.60000305175782)"><g class="timeline-node section-0"><g><path id="my-svg-node-9" class="node-bkg node-undefined" d="M0 67.8 v-62.8 q0,-5,5,-5 h180 q5,0,5,5 v67.8 H0 Z"/><line class="node-line-0" x1="0" y1="72.8" x2="190" y2="72.8"/></g><g transform="translate(95, 10)"><text dy="1em" alignment-baseline="middle" dominant-baseline="middle" text-anchor="middle"><tspan x="0" dy="1em">9fb5987</tspan></text></g></g></g><g class="lineWrapper"><line x1="695" y1="265.40000305175784" x2="695" y2="785.800015258789" stroke-width="2" stroke="black" marker-end="url(#my-svg-arrowhead)" stroke-dasharray="5,5"/></g><g class="eventWrapper" transform="translate(600, 392.6000030517578)"><g class="timeline-node section-0"><g><path id="my-svg-node-10" class="node-bkg node-undefined" d="M0 87.40000610351562 v-82.40000610351562 q0,-5,5,-5 h180 q5,0,5,5 v87.40000610351562 H0 Z"/><line class="node-line-0" x1="0" y1="92.40000610351562" x2="190" y2="92.40000610351562"/></g><g transform="translate(95, 10)"><text dy="1em" alignment-baseline="middle" dominant-baseline="middle" text-anchor="middle"><tspan x="0" dy="1em">Captura   de</tspan><tspan x="0" dy="1.1em">requests   +   fix</tspan><tspan x="0" dy="1.1em">webhook   Zavu</tspan></text></g></g></g><g class="taskWrapper" transform="translate(800, 192.60000305175782)"><g class="timeline-node section-0"><g><path id="my-svg-node-11" class="node-bkg node-undefined" d="M0 67.8 v-62.8 q0,-5,5,-5 h180 q5,0,5,5 v67.8 H0 Z"/><line class="node-line-0" x1="0" y1="72.8" x2="190" y2="72.8"/></g><g transform="translate(95, 10)"><text dy="1em" alignment-baseline="middle" dominant-baseline="middle" text-anchor="middle"><tspan x="0" dy="1em">f658215</tspan></text></g></g></g><g class="lineWrapper"><line x1="895" y1="265.40000305175784" x2="895" y2="785.800015258789" stroke-width="2" stroke="black" marker-end="url(#my-svg-arrowhead)" stroke-dasharray="5,5"/></g><g class="eventWrapper" transform="translate(800, 392.6000030517578)"><g class="timeline-node section-0"><g><path id="my-svg-node-12" class="node-bkg node-undefined" d="M0 67.60000305175781 v-62.60000305175781 q0,-5,5,-5 h180 q5,0,5,5 v67.60000305175781 H0 Z"/><line class="node-line-0" x1="0" y1="72.60000305175781" x2="190" y2="72.60000305175781"/></g><g transform="translate(95, 10)"><text dy="1em" alignment-baseline="middle" dominant-baseline="middle" text-anchor="middle"><tspan x="0" dy="1em">Vista   Requests   en</tspan><tspan x="0" dy="1.1em">dashboard</tspan></text></g></g></g><g class="taskWrapper" transform="translate(1000, 192.60000305175782)"><g class="timeline-node section-0"><g><path id="my-svg-node-13" class="node-bkg node-undefined" d="M0 67.8 v-62.8 q0,-5,5,-5 h180 q5,0,5,5 v67.8 H0 Z"/><line class="node-line-0" x1="0" y1="72.8" x2="190" y2="72.8"/></g><g transform="translate(95, 10)"><text dy="1em" alignment-baseline="middle" dominant-baseline="middle" text-anchor="middle"><tspan x="0" dy="1em">075de69</tspan></text></g></g></g><g class="lineWrapper"><line x1="1095" y1="265.40000305175784" x2="1095" y2="785.800015258789" stroke-width="2" stroke="black" marker-end="url(#my-svg-arrowhead)" stroke-dasharray="5,5"/></g><g class="eventWrapper" transform="translate(1000, 392.6000030517578)"><g class="timeline-node section-0"><g><path id="my-svg-node-14" class="node-bkg node-undefined" d="M0 67.60000305175781 v-62.60000305175781 q0,-5,5,-5 h180 q5,0,5,5 v67.60000305175781 H0 Z"/><line class="node-line-0" x1="0" y1="72.60000305175781" x2="190" y2="72.60000305175781"/></g><g transform="translate(95, 10)"><text dy="1em" alignment-baseline="middle" dominant-baseline="middle" text-anchor="middle"><tspan x="0" dy="1em">Detalle   de   payload</tspan><tspan x="0" dy="1.1em">webhook</tspan></text></g></g></g><g class="taskWrapper" transform="translate(1200, 192.60000305175782)"><g class="timeline-node section-0"><g><path id="my-svg-node-15" class="node-bkg node-undefined" d="M0 67.8 v-62.8 q0,-5,5,-5 h180 q5,0,5,5 v67.8 H0 Z"/><line class="node-line-0" x1="0" y1="72.8" x2="190" y2="72.8"/></g><g transform="translate(95, 10)"><text dy="1em" alignment-baseline="middle" dominant-baseline="middle" text-anchor="middle"><tspan x="0" dy="1em">2119ce7</tspan></text></g></g></g><g class="lineWrapper"><line x1="1295" y1="265.40000305175784" x2="1295" y2="785.800015258789" stroke-width="2" stroke="black" marker-end="url(#my-svg-arrowhead)" stroke-dasharray="5,5"/></g><g class="eventWrapper" transform="translate(1200, 392.6000030517578)"><g class="timeline-node section-0"><g><path id="my-svg-node-16" class="node-bkg node-undefined" d="M0 67.60000305175781 v-62.60000305175781 q0,-5,5,-5 h180 q5,0,5,5 v67.60000305175781 H0 Z"/><line class="node-line-0" x1="0" y1="72.60000305175781" x2="190" y2="72.60000305175781"/></g><g transform="translate(95, 10)"><text dy="1em" alignment-baseline="middle" dominant-baseline="middle" text-anchor="middle"><tspan x="0" dy="1em">Persistencia   de</tspan><tspan x="0" dy="1.1em">vista   en   URL   hash</tspan></text></g></g></g><g transform="translate(1400, 50)"><g class="timeline-node section-1"><g><path id="my-svg-node-17" class="node-bkg node-undefined" d="M0 87.60000305175781 v-82.60000305175781 q0,-5,5,-5 h1180 q5,0,5,5 v87.60000305175781 H0 Z"/><line class="node-line-1" x1="0" y1="92.60000305175781" x2="1190" y2="92.60000305175781"/></g><g transform="translate(595, 10)"><text dy="1em" alignment-baseline="middle" dominant-baseline="middle" text-anchor="middle"><tspan x="0" dy="1em">Flujo   WhatsApp</tspan></text></g></g></g><g class="taskWrapper" transform="translate(1400, 192.60000305175782)"><g class="timeline-node section-1"><g><path id="my-svg-node-18" class="node-bkg node-undefined" d="M0 67.8 v-62.8 q0,-5,5,-5 h180 q5,0,5,5 v67.8 H0 Z"/><line class="node-line-1" x1="0" y1="72.8" x2="190" y2="72.8"/></g><g transform="translate(95, 10)"><text dy="1em" alignment-baseline="middle" dominant-baseline="middle" text-anchor="middle"><tspan x="0" dy="1em">cdaf18f</tspan></text></g></g></g><g class="lineWrapper"><line x1="1495" y1="265.40000305175784" x2="1495" y2="785.800015258789" stroke-width="2" stroke="black" marker-end="url(#my-svg-arrowhead)" stroke-dasharray="5,5"/></g><g class="eventWrapper" transform="translate(1400, 392.6000030517578)"><g class="timeline-node section-1"><g><path id="my-svg-node-19" class="node-bkg node-undefined" d="M0 87.40000610351562 v-82.40000610351562 q0,-5,5,-5 h180 q5,0,5,5 v87.40000610351562 H0 Z"/><line class="node-line-1" x1="0" y1="92.40000610351562" x2="190" y2="92.40000610351562"/></g><g transform="translate(95, 10)"><text dy="1em" alignment-baseline="middle" dominant-baseline="middle" text-anchor="middle"><tspan x="0" dy="1em">Intake   flow   +</tspan><tspan x="0" dy="1.1em">integración</tspan><tspan x="0" dy="1.1em">TrabajoYa</tspan></text></g></g></g><g class="taskWrapper" transform="translate(1600, 192.60000305175782)"><g class="timeline-node section-1"><g><path id="my-svg-node-20" class="node-bkg node-undefined" d="M0 67.8 v-62.8 q0,-5,5,-5 h180 q5,0,5,5 v67.8 H0 Z"/><line class="node-line-1" x1="0" y1="72.8" x2="190" y2="72.8"/></g><g transform="translate(95, 10)"><text dy="1em" alignment-baseline="middle" dominant-baseline="middle" text-anchor="middle"><tspan x="0" dy="1em">5302f76</tspan></text></g></g></g><g class="lineWrapper"><line x1="1695" y1="265.40000305175784" x2="1695" y2="785.800015258789" stroke-width="2" stroke="black" marker-end="url(#my-svg-arrowhead)" stroke-dasharray="5,5"/></g><g class="eventWrapper" transform="translate(1600, 392.6000030517578)"><g class="timeline-node section-1"><g><path id="my-svg-node-21" class="node-bkg node-undefined" d="M0 107.20000915527343 v-102.20000915527343 q0,-5,5,-5 h180 q5,0,5,5 v107.20000915527343 H0 Z"/><line class="node-line-1" x1="0" y1="112.20000915527343" x2="190" y2="112.20000915527343"/></g><g transform="translate(95, 10)"><text dy="1em" alignment-baseline="middle" dominant-baseline="middle" text-anchor="middle"><tspan x="0" dy="1em">Anti-duplicados   /</tspan><tspan x="0" dy="1.1em">orden   de</tspan><tspan x="0" dy="1.1em">mensajes   (Redis</tspan><tspan x="0" dy="1.1em">lock)</tspan></text></g></g></g><g class="taskWrapper" transform="translate(1800, 192.60000305175782)"><g class="timeline-node section-1"><g><path id="my-svg-node-22" class="node-bkg node-undefined" d="M0 67.8 v-62.8 q0,-5,5,-5 h180 q5,0,5,5 v67.8 H0 Z"/><line class="node-line-1" x1="0" y1="72.8" x2="190" y2="72.8"/></g><g transform="translate(95, 10)"><text dy="1em" alignment-baseline="middle" dominant-baseline="middle" text-anchor="middle"><tspan x="0" dy="1em">4b6c4b9</tspan></text></g></g></g><g class="lineWrapper"><line x1="1895" y1="265.40000305175784" x2="1895" y2="785.800015258789" stroke-width="2" stroke="black" marker-end="url(#my-svg-arrowhead)" stroke-dasharray="5,5"/></g><g class="eventWrapper" transform="translate(1800, 392.6000030517578)"><g class="timeline-node section-1"><g><path id="my-svg-node-23" class="node-bkg node-undefined" d="M0 87.40000610351562 v-82.40000610351562 q0,-5,5,-5 h180 q5,0,5,5 v87.40000610351562 H0 Z"/><line class="node-line-1" x1="0" y1="92.40000610351562" x2="190" y2="92.40000610351562"/></g><g transform="translate(95, 10)"><text dy="1em" alignment-baseline="middle" dominant-baseline="middle" text-anchor="middle"><tspan x="0" dy="1em">Upload   CV   +</tspan><tspan x="0" dy="1.1em">menús   interactivos</tspan><tspan x="0" dy="1.1em">+   reset   sesión</tspan></text></g></g></g><g class="taskWrapper" transform="translate(2000, 192.60000305175782)"><g class="timeline-node section-1"><g><path id="my-svg-node-24" class="node-bkg node-undefined" d="M0 67.8 v-62.8 q0,-5,5,-5 h180 q5,0,5,5 v67.8 H0 Z"/><line class="node-line-1" x1="0" y1="72.8" x2="190" y2="72.8"/></g><g transform="translate(95, 10)"><text dy="1em" alignment-baseline="middle" dominant-baseline="middle" text-anchor="middle"><tspan x="0" dy="1em">e6409d5</tspan></text></g></g></g><g class="lineWrapper"><line x1="2095" y1="265.40000305175784" x2="2095" y2="785.800015258789" stroke-width="2" stroke="black" marker-end="url(#my-svg-arrowhead)" stroke-dasharray="5,5"/></g><g class="eventWrapper" transform="translate(2000, 392.6000030517578)"><g class="timeline-node section-1"><g><path id="my-svg-node-25" class="node-bkg node-undefined" d="M0 67.60000305175781 v-62.60000305175781 q0,-5,5,-5 h180 q5,0,5,5 v67.60000305175781 H0 Z"/><line class="node-line-1" x1="0" y1="72.60000305175781" x2="190" y2="72.60000305175781"/></g><g transform="translate(95, 10)"><text dy="1em" alignment-baseline="middle" dominant-baseline="middle" text-anchor="middle"><tspan x="0" dy="1em">Mensajes   del   bot</tspan><tspan x="0" dy="1.1em">más   explícitos</tspan></text></g></g></g><g class="taskWrapper" transform="translate(2200, 192.60000305175782)"><g class="timeline-node section-1"><g><path id="my-svg-node-26" class="node-bkg node-undefined" d="M0 67.8 v-62.8 q0,-5,5,-5 h180 q5,0,5,5 v67.8 H0 Z"/><line class="node-line-1" x1="0" y1="72.8" x2="190" y2="72.8"/></g><g transform="translate(95, 10)"><text dy="1em" alignment-baseline="middle" dominant-baseline="middle" text-anchor="middle"><tspan x="0" dy="1em">5828a3c</tspan></text></g></g></g><g class="lineWrapper"><line x1="2295" y1="265.40000305175784" x2="2295" y2="785.800015258789" stroke-width="2" stroke="black" marker-end="url(#my-svg-arrowhead)" stroke-dasharray="5,5"/></g><g class="eventWrapper" transform="translate(2200, 392.6000030517578)"><g class="timeline-node section-1"><g><path id="my-svg-node-27" class="node-bkg node-undefined" d="M0 67.60000305175781 v-62.60000305175781 q0,-5,5,-5 h180 q5,0,5,5 v67.60000305175781 H0 Z"/><line class="node-line-1" x1="0" y1="72.60000305175781" x2="190" y2="72.60000305175781"/></g><g transform="translate(95, 10)"><text dy="1em" alignment-baseline="middle" dominant-baseline="middle" text-anchor="middle"><tspan x="0" dy="1em">Skip   menú</tspan><tspan x="0" dy="1.1em">post-registro</tspan></text></g></g></g><g class="taskWrapper" transform="translate(2400, 192.60000305175782)"><g class="timeline-node section-1"><g><path id="my-svg-node-28" class="node-bkg node-undefined" d="M0 67.8 v-62.8 q0,-5,5,-5 h180 q5,0,5,5 v67.8 H0 Z"/><line class="node-line-1" x1="0" y1="72.8" x2="190" y2="72.8"/></g><g transform="translate(95, 10)"><text dy="1em" alignment-baseline="middle" dominant-baseline="middle" text-anchor="middle"><tspan x="0" dy="1em">9e9369b</tspan></text></g></g></g><g class="lineWrapper"><line x1="2495" y1="265.40000305175784" x2="2495" y2="785.800015258789" stroke-width="2" stroke="black" marker-end="url(#my-svg-arrowhead)" stroke-dasharray="5,5"/></g><g class="eventWrapper" transform="translate(2400, 392.6000030517578)"><g class="timeline-node section-1"><g><path id="my-svg-node-29" class="node-bkg node-undefined" d="M0 67.60000305175781 v-62.60000305175781 q0,-5,5,-5 h180 q5,0,5,5 v67.60000305175781 H0 Z"/><line class="node-line-1" x1="0" y1="72.60000305175781" x2="190" y2="72.60000305175781"/></g><g transform="translate(95, 10)"><text dy="1em" alignment-baseline="middle" dominant-baseline="middle" text-anchor="middle"><tspan x="0" dy="1em">Reconocer   replies</tspan><tspan x="0" dy="1.1em">de   lista   al   resetear</tspan></text></g></g></g><g transform="translate(2600, 50)"><g class="timeline-node section-2"><g><path id="my-svg-node-30" class="node-bkg node-undefined" d="M0 87.60000305175781 v-82.60000305175781 q0,-5,5,-5 h1180 q5,0,5,5 v87.60000305175781 H0 Z"/><line class="node-line-2" x1="0" y1="92.60000305175781" x2="1190" y2="92.60000305175781"/></g><g transform="translate(595, 10)"><text dy="1em" alignment-baseline="middle" dominant-baseline="middle" text-anchor="middle"><tspan x="0" dy="1em">Integraciones   externas</tspan></text></g></g></g><g class="taskWrapper" transform="translate(2600, 192.60000305175782)"><g class="timeline-node section-2"><g><path id="my-svg-node-31" class="node-bkg node-undefined" d="M0 67.8 v-62.8 q0,-5,5,-5 h180 q5,0,5,5 v67.8 H0 Z"/><line class="node-line-2" x1="0" y1="72.8" x2="190" y2="72.8"/></g><g transform="translate(95, 10)"><text dy="1em" alignment-baseline="middle" dominant-baseline="middle" text-anchor="middle"><tspan x="0" dy="1em">cf5e6c2</tspan></text></g></g></g><g class="lineWrapper"><line x1="2695" y1="265.40000305175784" x2="2695" y2="785.800015258789" stroke-width="2" stroke="black" marker-end="url(#my-svg-arrowhead)" stroke-dasharray="5,5"/></g><g class="eventWrapper" transform="translate(2600, 392.6000030517578)"><g class="timeline-node section-2"><g><path id="my-svg-node-32" class="node-bkg node-undefined" d="M0 67.60000305175781 v-62.60000305175781 q0,-5,5,-5 h180 q5,0,5,5 v67.60000305175781 H0 Z"/><line class="node-line-2" x1="0" y1="72.60000305175781" x2="190" y2="72.60000305175781"/></g><g transform="translate(95, 10)"><text dy="1em" alignment-baseline="middle" dominant-baseline="middle" text-anchor="middle"><tspan x="0" dy="1em">Sanitización   texto</tspan><tspan x="0" dy="1.1em">CV   →   TrabajoYa</tspan></text></g></g></g><g class="taskWrapper" transform="translate(2800, 192.60000305175782)"><g class="timeline-node section-2"><g><path id="my-svg-node-33" class="node-bkg node-undefined" d="M0 67.8 v-62.8 q0,-5,5,-5 h180 q5,0,5,5 v67.8 H0 Z"/><line class="node-line-2" x1="0" y1="72.8" x2="190" y2="72.8"/></g><g transform="translate(95, 10)"><text dy="1em" alignment-baseline="middle" dominant-baseline="middle" text-anchor="middle"><tspan x="0" dy="1em">5466b60</tspan></text></g></g></g><g class="lineWrapper"><line x1="2895" y1="265.40000305175784" x2="2895" y2="785.800015258789" stroke-width="2" stroke="black" marker-end="url(#my-svg-arrowhead)" stroke-dasharray="5,5"/></g><g class="eventWrapper" transform="translate(2800, 392.6000030517578)"><g class="timeline-node section-2"><g><path id="my-svg-node-34" class="node-bkg node-undefined" d="M0 67.60000305175781 v-62.60000305175781 q0,-5,5,-5 h180 q5,0,5,5 v67.60000305175781 H0 Z"/><line class="node-line-2" x1="0" y1="72.60000305175781" x2="190" y2="72.60000305175781"/></g><g transform="translate(95, 10)"><text dy="1em" alignment-baseline="middle" dominant-baseline="middle" text-anchor="middle"><tspan x="0" dy="1em">Resolución   media</tspan><tspan x="0" dy="1.1em">CV   desde   Zavu</tspan></text></g></g></g><g class="taskWrapper" transform="translate(3000, 192.60000305175782)"><g class="timeline-node section-2"><g><path id="my-svg-node-35" class="node-bkg node-undefined" d="M0 67.8 v-62.8 q0,-5,5,-5 h180 q5,0,5,5 v67.8 H0 Z"/><line class="node-line-2" x1="0" y1="72.8" x2="190" y2="72.8"/></g><g transform="translate(95, 10)"><text dy="1em" alignment-baseline="middle" dominant-baseline="middle" text-anchor="middle"><tspan x="0" dy="1em">fdca080</tspan></text></g></g></g><g class="lineWrapper"><line x1="3095" y1="265.40000305175784" x2="3095" y2="785.800015258789" stroke-width="2" stroke="black" marker-end="url(#my-svg-arrowhead)" stroke-dasharray="5,5"/></g><g class="eventWrapper" transform="translate(3000, 392.6000030517578)"><g class="timeline-node section-2"><g><path id="my-svg-node-36" class="node-bkg node-undefined" d="M0 67.60000305175781 v-62.60000305175781 q0,-5,5,-5 h180 q5,0,5,5 v67.60000305175781 H0 Z"/><line class="node-line-2" x1="0" y1="72.60000305175781" x2="190" y2="72.60000305175781"/></g><g transform="translate(95, 10)"><text dy="1em" alignment-baseline="middle" dominant-baseline="middle" text-anchor="middle"><tspan x="0" dy="1em">Manejo   errores</tspan><tspan x="0" dy="1.1em">Zavu   +   unit   tests</tspan></text></g></g></g><g class="taskWrapper" transform="translate(3200, 192.60000305175782)"><g class="timeline-node section-2"><g><path id="my-svg-node-37" class="node-bkg node-undefined" d="M0 67.8 v-62.8 q0,-5,5,-5 h180 q5,0,5,5 v67.8 H0 Z"/><line class="node-line-2" x1="0" y1="72.8" x2="190" y2="72.8"/></g><g transform="translate(95, 10)"><text dy="1em" alignment-baseline="middle" dominant-baseline="middle" text-anchor="middle"><tspan x="0" dy="1em">daf147e</tspan></text></g></g></g><g class="lineWrapper"><line x1="3295" y1="265.40000305175784" x2="3295" y2="785.800015258789" stroke-width="2" stroke="black" marker-end="url(#my-svg-arrowhead)" stroke-dasharray="5,5"/></g><g class="eventWrapper" transform="translate(3200, 392.6000030517578)"><g class="timeline-node section-2"><g><path id="my-svg-node-38" class="node-bkg node-undefined" d="M0 67.60000305175781 v-62.60000305175781 q0,-5,5,-5 h180 q5,0,5,5 v67.60000305175781 H0 Z"/><line class="node-line-2" x1="0" y1="72.60000305175781" x2="190" y2="72.60000305175781"/></g><g transform="translate(95, 10)"><text dy="1em" alignment-baseline="middle" dominant-baseline="middle" text-anchor="middle"><tspan x="0" dy="1em">ElevenLabs   TTS   →</tspan><tspan x="0" dy="1.1em">audio   WhatsApp</tspan></text></g></g></g><g class="taskWrapper" transform="translate(3400, 192.60000305175782)"><g class="timeline-node section-2"><g><path id="my-svg-node-39" class="node-bkg node-undefined" d="M0 67.8 v-62.8 q0,-5,5,-5 h180 q5,0,5,5 v67.8 H0 Z"/><line class="node-line-2" x1="0" y1="72.8" x2="190" y2="72.8"/></g><g transform="translate(95, 10)"><text dy="1em" alignment-baseline="middle" dominant-baseline="middle" text-anchor="middle"><tspan x="0" dy="1em">85cf50c</tspan></text></g></g></g><g class="lineWrapper"><line x1="3495" y1="265.40000305175784" x2="3495" y2="785.800015258789" stroke-width="2" stroke="black" marker-end="url(#my-svg-arrowhead)" stroke-dasharray="5,5"/></g><g class="eventWrapper" transform="translate(3400, 392.6000030517578)"><g class="timeline-node section-2"><g><path id="my-svg-node-40" class="node-bkg node-undefined" d="M0 87.40000610351562 v-82.40000610351562 q0,-5,5,-5 h180 q5,0,5,5 v87.40000610351562 H0 Z"/><line class="node-line-2" x1="0" y1="92.40000610351562" x2="190" y2="92.40000610351562"/></g><g transform="translate(95, 10)"><text dy="1em" alignment-baseline="middle" dominant-baseline="middle" text-anchor="middle"><tspan x="0" dy="1em">Texto   intro   antes</tspan><tspan x="0" dy="1.1em">del   audio   de</tspan><tspan x="0" dy="1.1em">feedback</tspan></text></g></g></g><g class="taskWrapper" transform="translate(3600, 192.60000305175782)"><g class="timeline-node section-2"><g><path id="my-svg-node-41" class="node-bkg node-undefined" d="M0 67.8 v-62.8 q0,-5,5,-5 h180 q5,0,5,5 v67.8 H0 Z"/><line class="node-line-2" x1="0" y1="72.8" x2="190" y2="72.8"/></g><g transform="translate(95, 10)"><text dy="1em" alignment-baseline="middle" dominant-baseline="middle" text-anchor="middle"><tspan x="0" dy="1em">d5831b2</tspan></text></g></g></g><g class="lineWrapper"><line x1="3695" y1="265.40000305175784" x2="3695" y2="785.800015258789" stroke-width="2" stroke="black" marker-end="url(#my-svg-arrowhead)" stroke-dasharray="5,5"/></g><g class="eventWrapper" transform="translate(3600, 392.6000030517578)"><g class="timeline-node section-2"><g><path id="my-svg-node-42" class="node-bkg node-undefined" d="M0 87.40000610351562 v-82.40000610351562 q0,-5,5,-5 h180 q5,0,5,5 v87.40000610351562 H0 Z"/><line class="node-line-2" x1="0" y1="92.40000610351562" x2="190" y2="92.40000610351562"/></g><g transform="translate(95, 10)"><text dy="1em" alignment-baseline="middle" dominant-baseline="middle" text-anchor="middle"><tspan x="0" dy="1em">POST</tspan><tspan x="0" dy="1.1em">/api/message/send</tspan><tspan x="0" dy="1.1em">(texto   saliente)</tspan></text></g></g></g><g transform="translate(3800, 50)"><g class="timeline-node section-3"><g><path id="my-svg-node-43" class="node-bkg node-undefined" d="M0 87.60000305175781 v-82.60000305175781 q0,-5,5,-5 h580 q5,0,5,5 v87.60000305175781 H0 Z"/><line class="node-line-3" x1="0" y1="92.60000305175781" x2="590" y2="92.60000305175781"/></g><g transform="translate(295, 10)"><text dy="1em" alignment-baseline="middle" dominant-baseline="middle" text-anchor="middle"><tspan x="0" dy="1em">Infra   &amp;   Docs</tspan></text></g></g></g><g class="taskWrapper" transform="translate(3800, 192.60000305175782)"><g class="timeline-node section-3"><g><path id="my-svg-node-44" class="node-bkg node-undefined" d="M0 67.8 v-62.8 q0,-5,5,-5 h180 q5,0,5,5 v67.8 H0 Z"/><line class="node-line-3" x1="0" y1="72.8" x2="190" y2="72.8"/></g><g transform="translate(95, 10)"><text dy="1em" alignment-baseline="middle" dominant-baseline="middle" text-anchor="middle"><tspan x="0" dy="1em">8927d35</tspan></text></g></g></g><g class="lineWrapper"><line x1="3895" y1="265.40000305175784" x2="3895" y2="785.800015258789" stroke-width="2" stroke="black" marker-end="url(#my-svg-arrowhead)" stroke-dasharray="5,5"/></g><g class="eventWrapper" transform="translate(3800, 392.6000030517578)"><g class="timeline-node section-3"><g><path id="my-svg-node-45" class="node-bkg node-undefined" d="M0 67.60000305175781 v-62.60000305175781 q0,-5,5,-5 h180 q5,0,5,5 v67.60000305175781 H0 Z"/><line class="node-line-3" x1="0" y1="72.60000305175781" x2="190" y2="72.60000305175781"/></g><g transform="translate(95, 10)"><text dy="1em" alignment-baseline="middle" dominant-baseline="middle" text-anchor="middle"><tspan x="0" dy="1em">Fix   puerto   Docker</tspan><tspan x="0" dy="1.1em">(Dokploy)</tspan></text></g></g></g><g class="taskWrapper" transform="translate(4000, 192.60000305175782)"><g class="timeline-node section-3"><g><path id="my-svg-node-46" class="node-bkg node-undefined" d="M0 67.8 v-62.8 q0,-5,5,-5 h180 q5,0,5,5 v67.8 H0 Z"/><line class="node-line-3" x1="0" y1="72.8" x2="190" y2="72.8"/></g><g transform="translate(95, 10)"><text dy="1em" alignment-baseline="middle" dominant-baseline="middle" text-anchor="middle"><tspan x="0" dy="1em">7292231</tspan></text></g></g></g><g class="lineWrapper"><line x1="4095" y1="265.40000305175784" x2="4095" y2="785.800015258789" stroke-width="2" stroke="black" marker-end="url(#my-svg-arrowhead)" stroke-dasharray="5,5"/></g><g class="eventWrapper" transform="translate(4000, 392.6000030517578)"><g class="timeline-node section-3"><g><path id="my-svg-node-47" class="node-bkg node-undefined" d="M0 67.60000305175781 v-62.60000305175781 q0,-5,5,-5 h180 q5,0,5,5 v67.60000305175781 H0 Z"/><line class="node-line-3" x1="0" y1="72.60000305175781" x2="190" y2="72.60000305175781"/></g><g transform="translate(95, 10)"><text dy="1em" alignment-baseline="middle" dominant-baseline="middle" text-anchor="middle"><tspan x="0" dy="1em">Env   vars   TrabajoYa</tspan><tspan x="0" dy="1.1em">en   Docker</tspan></text></g></g></g><g class="taskWrapper" transform="translate(4200, 192.60000305175782)"><g class="timeline-node section-3"><g><path id="my-svg-node-48" class="node-bkg node-undefined" d="M0 67.8 v-62.8 q0,-5,5,-5 h180 q5,0,5,5 v67.8 H0 Z"/><line class="node-line-3" x1="0" y1="72.8" x2="190" y2="72.8"/></g><g transform="translate(95, 10)"><text dy="1em" alignment-baseline="middle" dominant-baseline="middle" text-anchor="middle"><tspan x="0" dy="1em">d7eb003</tspan></text></g></g></g><g class="lineWrapper"><line x1="4295" y1="265.40000305175784" x2="4295" y2="785.800015258789" stroke-width="2" stroke="black" marker-end="url(#my-svg-arrowhead)" stroke-dasharray="5,5"/></g><g class="eventWrapper" transform="translate(4200, 392.6000030517578)"><g class="timeline-node section-3"><g><path id="my-svg-node-49" class="node-bkg node-undefined" d="M0 67.60000305175781 v-62.60000305175781 q0,-5,5,-5 h180 q5,0,5,5 v67.60000305175781 H0 Z"/><line class="node-line-3" x1="0" y1="72.60000305175781" x2="190" y2="72.60000305175781"/></g><g transform="translate(95, 10)"><text dy="1em" alignment-baseline="middle" dominant-baseline="middle" text-anchor="middle"><tspan x="0" dy="1em">README   +</tspan><tspan x="0" dy="1.1em">docs/API.md</tspan></text></g></g></g><text x="1945" font-size="4ex" font-weight="bold" y="20">Evolución del proyecto cv-api-wp (por commits)</text><g class="lineWrapper"><line x1="150" y1="315.40000305175784" x2="4640" y2="315.40000305175784" stroke-width="4" stroke="black" marker-end="url(#my-svg-arrowhead)"/></g></svg>